<svg width="17" height="13" viewBox="0 0 17 13" fill="none" xmlns="http://www.w3.org/2000/svg">
<path d="M15.5833 0H4.95833C4.46958 0 4.08708 0.252778 3.83208 0.635556L0 6.5L3.83208 12.3572C4.08708 12.74 4.46958 13 4.95833 13H15.5833C15.9591 13 16.3194 12.8478 16.5851 12.5769C16.8507 12.306 17 11.9386 17 11.5556V1.44444C17 1.06135 16.8507 0.693954 16.5851 0.423068C16.3194 0.152182 15.9591 0 15.5833 0ZM13.4583 9.09278L12.4596 10.1111L9.91667 7.51833L7.37375 10.1111L6.375 9.09278L8.91792 6.5L6.375 3.90722L7.37375 2.88889L9.91667 5.48167L12.4596 2.88889L13.4583 3.90722L10.9154 6.5" fill="white"/>
</svg>
