<svg width="21" height="24" viewBox="0 0 21 24" fill="none" xmlns="http://www.w3.org/2000/svg">
<path d="M13.1246 11.9984V22.5036C13.1771 22.9036 13.0459 23.3302 12.7441 23.6101C12.6227 23.7337 12.4784 23.8318 12.3197 23.8987C12.1609 23.9656 11.9908 24 11.8189 24C11.647 24 11.4768 23.9656 11.3181 23.8987C11.1593 23.8318 11.0151 23.7337 10.8937 23.6101L8.25593 20.9305C8.11281 20.7884 8.00398 20.6145 7.93796 20.4226C7.87194 20.2306 7.85051 20.0257 7.87536 19.824V11.9984H7.83599L0.27704 2.15971C0.0639307 1.88178 -0.0322287 1.52947 0.00957409 1.17975C0.0513768 0.830023 0.227743 0.511326 0.500135 0.293294C0.749475 0.106652 1.02506 0 1.31377 0H19.6862C19.9749 0 20.2505 0.106652 20.4999 0.293294C20.7723 0.511326 20.9486 0.830023 20.9904 1.17975C21.0322 1.52947 20.9361 1.88178 20.723 2.15971L13.164 11.9984H13.1246Z" fill="black"/>
</svg>
