<svg width="20" height="22" viewBox="0 0 20 22" fill="#3063E4" xmlns="http://www.w3.org/2000/svg">
<path d="M12.4997 10.9985V20.6283C12.5496 20.9949 12.4247 21.386 12.1372 21.6426C12.0216 21.7559 11.8842 21.8458 11.733 21.9071C11.5818 21.9684 11.4198 22 11.2561 22C11.0924 22 10.9303 21.9684 10.7791 21.9071C10.6279 21.8458 10.4906 21.7559 10.3749 21.6426L7.8628 19.1863C7.72648 19.056 7.62284 18.8966 7.55996 18.7207C7.49708 18.5447 7.47668 18.3569 7.50035 18.172V10.9985H7.46285L0.263848 1.97973C0.0608864 1.72497 -0.030694 1.40201 0.00911818 1.08143C0.0489303 0.760855 0.216898 0.468715 0.476319 0.268852C0.713786 0.0977645 0.976249 0 1.25121 0H18.7488C19.0238 0 19.2862 0.0977645 19.5237 0.268852C19.7831 0.468715 19.9511 0.760855 19.9909 1.08143C20.0307 1.40201 19.9391 1.72497 19.7362 1.97973L12.5371 10.9985H12.4997Z" fill="#3063E4"/>
</svg>
