<svg width="60" height="60" viewBox="0 0 60 60" fill="none" xmlns="http://www.w3.org/2000/svg">
<circle cx="30" cy="30" r="30" fill="white"/>
<circle cx="30" cy="30" r="30" fill="white"/>
<circle cx="30" cy="30" r="30" fill="#DEDEDE"/>
<circle cx="30" cy="30" r="27" fill="white"/>
<circle cx="30" cy="30" r="27" fill="white"/>
<circle cx="30" cy="30" r="27" fill="white"/>
<path d="M19 19.4875C19 18.5626 19.3556 17.6755 19.9885 17.0215C20.6215 16.3674 21.4799 16 22.375 16H34.375C35.2701 16 36.1285 16.3674 36.7615 17.0215C37.3944 17.6755 37.75 18.5626 37.75 19.4875V27.625H39.625C40.0682 27.625 40.5071 27.7152 40.9166 27.8905C41.326 28.0657 41.6981 28.3226 42.0115 28.6465C42.3249 28.9703 42.5735 29.3548 42.7431 29.7779C42.9127 30.201 43 30.6545 43 31.1125V45.8375C43 46.1458 42.8815 46.4415 42.6705 46.6595C42.4595 46.8775 42.1734 47 41.875 47H37.75V41.1875C37.75 40.118 36.91 39.25 35.875 39.25H26.125C25.09 39.25 24.25 40.118 24.25 41.1875V47H20.125C19.8266 47 19.5405 46.8775 19.3295 46.6595C19.1185 46.4415 19 46.1458 19 45.8375V19.4875ZM35.5 41.575V47H32.125V41.575H35.5ZM29.875 41.575V47H26.5V41.575H29.875ZM24.25 22.975C24.25 23.3861 24.408 23.7803 24.6893 24.071C24.9706 24.3617 25.3522 24.525 25.75 24.525C26.1478 24.525 26.5294 24.3617 26.8107 24.071C27.092 23.7803 27.25 23.3861 27.25 22.975C27.25 22.5639 27.092 22.1697 26.8107 21.879C26.5294 21.5883 26.1478 21.425 25.75 21.425C25.3522 21.425 24.9706 21.5883 24.6893 21.879C24.408 22.1697 24.25 22.5639 24.25 22.975ZM25.75 32.275C25.3522 32.275 24.9706 32.4383 24.6893 32.729C24.408 33.0197 24.25 33.4139 24.25 33.825C24.25 34.2361 24.408 34.6303 24.6893 34.921C24.9706 35.2117 25.3522 35.375 25.75 35.375C26.1478 35.375 26.5294 35.2117 26.8107 34.921C27.092 34.6303 27.25 34.2361 27.25 33.825C27.25 33.4139 27.092 33.0197 26.8107 32.729C26.5294 32.4383 26.1478 32.275 25.75 32.275ZM25.75 26.85C25.3522 26.85 24.9706 27.0133 24.6893 27.304C24.408 27.5947 24.25 27.9889 24.25 28.4C24.25 28.8111 24.408 29.2053 24.6893 29.496C24.9706 29.7867 25.3522 29.95 25.75 29.95C26.1478 29.95 26.5294 29.7867 26.8107 29.496C27.092 29.2053 27.25 28.8111 27.25 28.4C27.25 27.9889 27.092 27.5947 26.8107 27.304C26.5294 27.0133 26.1478 26.85 25.75 26.85ZM31 21.425C30.6022 21.425 30.2206 21.5883 29.9393 21.879C29.658 22.1697 29.5 22.5639 29.5 22.975C29.5 23.3861 29.658 23.7803 29.9393 24.071C30.2206 24.3617 30.6022 24.525 31 24.525C31.3978 24.525 31.7794 24.3617 32.0607 24.071C32.342 23.7803 32.5 23.3861 32.5 22.975C32.5 22.5639 32.342 22.1697 32.0607 21.879C31.7794 21.5883 31.3978 21.425 31 21.425ZM31 32.275C30.6022 32.275 30.2206 32.4383 29.9393 32.729C29.658 33.0197 29.5 33.4139 29.5 33.825C29.5 34.2361 29.658 34.6303 29.9393 34.921C30.2206 35.2117 30.6022 35.375 31 35.375C31.3978 35.375 31.7794 35.2117 32.0607 34.921C32.342 34.6303 32.5 34.2361 32.5 33.825C32.5 33.4139 32.342 33.0197 32.0607 32.729C31.7794 32.4383 31.3978 32.275 31 32.275ZM36.25 32.275C35.8522 32.275 35.4706 32.4383 35.1893 32.729C34.908 33.0197 34.75 33.4139 34.75 33.825C34.75 34.2361 34.908 34.6303 35.1893 34.921C35.4706 35.2117 35.8522 35.375 36.25 35.375C36.6478 35.375 37.0294 35.2117 37.3107 34.921C37.592 34.6303 37.75 34.2361 37.75 33.825C37.75 33.4139 37.592 33.0197 37.3107 32.729C37.0294 32.4383 36.6478 32.275 36.25 32.275ZM31 26.85C30.6022 26.85 30.2206 27.0133 29.9393 27.304C29.658 27.5947 29.5 27.9889 29.5 28.4C29.5 28.8111 29.658 29.2053 29.9393 29.496C30.2206 29.7867 30.6022 29.95 31 29.95C31.3978 29.95 31.7794 29.7867 32.0607 29.496C32.342 29.2053 32.5 28.8111 32.5 28.4C32.5 27.9889 32.342 27.5947 32.0607 27.304C31.7794 27.0133 31.3978 26.85 31 26.85Z" fill="#3063E4"/>
</svg>
