<svg width="3" height="15" viewBox="0 0 3 15" fill="none" xmlns="http://www.w3.org/2000/svg">
<path d="M1.5 0C0.675 0 0 0.75 0 1.66667C0 2.58333 0.675 3.33333 1.5 3.33333C2.325 3.33333 3 2.58333 3 1.66667C3 0.75 2.325 0 1.5 0ZM1.5 11.6667C0.675 11.6667 0 12.4167 0 13.3333C0 14.25 0.675 15 1.5 15C2.325 15 3 14.25 3 13.3333C3 12.4167 2.325 11.6667 1.5 11.6667ZM1.5 5.83333C0.675 5.83333 0 6.58333 0 7.5C0 8.41667 0.675 9.16667 1.5 9.16667C2.325 9.16667 3 8.41667 3 7.5C3 6.58333 2.325 5.83333 1.5 5.83333Z" fill="#8B8B8B"/>
</svg>
