<svg width="33" height="34" viewBox="0 0 33 34" fill="none" xmlns="http://www.w3.org/2000/svg">
<ellipse cx="16.5" cy="17" rx="16.5" ry="17" fill="#3063E4"/>
<g clip-path="url(#clip0_181_1082)">
<path d="M16.5 17C17.7882 17 19.0236 16.5259 19.9345 15.682C20.8454 14.8381 21.3571 13.6935 21.3571 12.5C21.3571 11.3065 20.8454 10.1619 19.9345 9.31802C19.0236 8.47411 17.7882 8 16.5 8C15.2118 8 13.9764 8.47411 13.0655 9.31802C12.1546 10.1619 11.6429 11.3065 11.6429 12.5C11.6429 13.6935 12.1546 14.8381 13.0655 15.682C13.9764 16.5259 15.2118 17 16.5 17ZM14.7658 18.6875C11.0281 18.6875 8 21.493 8 24.9559C8 25.5324 8.50469 26 9.12701 26H23.873C24.4953 26 25 25.5324 25 24.9559C25 21.493 21.9719 18.6875 18.2342 18.6875H14.7658Z" fill="white"/>
</g>
<defs>
<clipPath id="clip0_181_1082">
<rect width="17" height="18" fill="white" transform="translate(8 8)"/>
</clipPath>
</defs>
</svg>
